<?xml version="1.0" encoding="iso-8859-1"?>
<!-- Generator: Adobe Illustrator 19.0.0, SVG Export Plug-In . SVG Version: 6.00 Build 0)  -->
<svg version="1.1" id="Layer_1" xmlns="http://www.w3.org/2000/svg" xmlns:xlink="http://www.w3.org/1999/xlink" x="0px" y="0px"
	 viewBox="0 0 512 512" style="enable-background:new 0 0 512 512;" xml:space="preserve">
<g>
	<rect x="40.962" y="111.219" style="fill:#808080;" width="71.144" height="10.792"/>
	<rect x="40.962" y="204.139" style="fill:#808080;" width="71.144" height="10.792"/>
	<rect x="40.962" y="297.071" style="fill:#808080;" width="71.144" height="10.792"/>
	<rect x="40.962" y="389.991" style="fill:#808080;" width="71.144" height="10.792"/>
	<rect x="399.884" y="111.219" style="fill:#808080;" width="68.746" height="10.792"/>
	<rect x="399.884" y="204.139" style="fill:#808080;" width="68.746" height="10.792"/>
	<rect x="399.884" y="297.071" style="fill:#808080;" width="68.746" height="10.792"/>
	<rect x="399.884" y="389.991" style="fill:#808080;" width="68.746" height="10.792"/>
</g>
<path style="fill:#9AD14B;" d="M371.254,482.624H140.746c-15.814,0-28.634-12.82-28.634-28.634V58.01
	c0-15.814,12.82-28.634,28.634-28.634h230.508c15.814,0,28.634,12.82,28.634,28.634v395.979
	C399.888,469.804,387.068,482.624,371.254,482.624z"/>
<rect x="142.096" y="59.357" style="fill:#F7B239;" width="227.822" height="393.289"/>
<g>
	<circle style="fill:#2197D8;" cx="186.872" cy="116.615" r="15.28"/>
	<circle style="fill:#2197D8;" cx="322.984" cy="116.615" r="15.28"/>
	<circle style="fill:#2197D8;" cx="186.872" cy="302.467" r="15.28"/>
	<circle style="fill:#2197D8;" cx="254.922" cy="302.467" r="15.28"/>
	<circle style="fill:#2197D8;" cx="322.984" cy="302.467" r="15.28"/>
</g>
<g>
	<circle style="fill:#F95428;" cx="186.872" cy="395.388" r="15.28"/>
	<circle style="fill:#F95428;" cx="322.984" cy="395.388" r="15.28"/>
	<circle style="fill:#F95428;" cx="186.872" cy="209.535" r="15.28"/>
	<circle style="fill:#F95428;" cx="254.922" cy="209.535" r="15.28"/>
	<circle style="fill:#F95428;" cx="322.984" cy="209.535" r="15.28"/>
	<path style="fill:#F95428;" d="M51.26,97.724H18.885C8.455,97.724,0,106.179,0,116.609l0,0c0,10.43,8.455,18.885,18.885,18.885
		H51.26c10.43,0,18.885-8.455,18.885-18.885l0,0C70.145,106.179,61.69,97.724,51.26,97.724z"/>
</g>
<path style="fill:#2197D8;" d="M51.26,190.651H18.885C8.455,190.651,0,199.106,0,209.536l0,0c0,10.43,8.455,18.885,18.885,18.885
	H51.26c10.43,0,18.885-8.455,18.885-18.885l0,0C70.145,199.106,61.69,190.651,51.26,190.651z"/>
<path style="fill:#F95428;" d="M51.26,283.579H18.885C8.455,283.579,0,292.034,0,302.464l0,0c0,10.43,8.455,18.885,18.885,18.885
	H51.26c10.43,0,18.885-8.455,18.885-18.885l0,0C70.145,292.034,61.69,283.579,51.26,283.579z"/>
<g>
	<path style="fill:#2197D8;" d="M51.26,376.506H18.885C8.455,376.506,0,384.961,0,395.391l0,0c0,10.43,8.455,18.885,18.885,18.885
		H51.26c10.43,0,18.885-8.455,18.885-18.885l0,0C70.145,384.961,61.69,376.506,51.26,376.506z"/>
	<path style="fill:#2197D8;" d="M460.74,97.724h32.375c10.43,0,18.885,8.455,18.885,18.885l0,0c0,10.43-8.455,18.885-18.885,18.885
		H460.74c-10.43,0-18.885-8.455-18.885-18.885l0,0C441.855,106.179,450.31,97.724,460.74,97.724z"/>
</g>
<path style="fill:#F95428;" d="M460.74,190.651h32.375c10.43,0,18.885,8.455,18.885,18.885l0,0c0,10.43-8.455,18.885-18.885,18.885
	H460.74c-10.43,0-18.885-8.455-18.885-18.885l0,0C441.855,199.106,450.31,190.651,460.74,190.651z"/>
<path style="fill:#2197D8;" d="M460.74,283.579h32.375c10.43,0,18.885,8.455,18.885,18.885l0,0c0,10.43-8.455,18.885-18.885,18.885
	H460.74c-10.43,0-18.885-8.455-18.885-18.885l0,0C441.855,292.034,450.31,283.579,460.74,283.579z"/>
<path style="fill:#F95428;" d="M460.74,376.506h32.375c10.43,0,18.885,8.455,18.885,18.885l0,0c0,10.43-8.455,18.885-18.885,18.885
	H460.74c-10.43,0-18.885-8.455-18.885-18.885l0,0C441.855,384.961,450.31,376.506,460.74,376.506z"/>
<g>
	<rect x="202.16" y="111.219" style="fill:#808080;" width="105.547" height="10.792"/>
	<rect x="338.249" y="111.219" style="fill:#808080;" width="31.657" height="10.792"/>
	<rect x="142.096" y="111.219" style="fill:#808080;" width="29.51" height="10.792"/>
</g>
<g>
	<path style="fill:#2BA5F7;" d="M186.879,137.885c-11.732,0-21.277-9.545-21.277-21.277s9.545-21.276,21.277-21.276
		c11.732,0,21.276,9.544,21.276,21.276S198.61,137.885,186.879,137.885z M186.879,107.324c-5.12,0-9.286,4.166-9.286,9.285
		c0,5.12,4.166,9.286,9.286,9.286s9.285-4.166,9.285-9.286C196.164,111.489,191.998,107.324,186.879,107.324z"/>
	<path style="fill:#2BA5F7;" d="M322.98,137.885c-11.732,0-21.277-9.545-21.277-21.277s9.545-21.276,21.277-21.276
		s21.276,9.544,21.276,21.276S334.711,137.885,322.98,137.885z M322.98,107.324c-5.12,0-9.286,4.166-9.286,9.285
		c0,5.12,4.166,9.286,9.286,9.286c5.12,0,9.285-4.166,9.285-9.286C332.264,111.489,328.099,107.324,322.98,107.324z"/>
</g>
<g>
	<rect x="202.16" y="390.003" style="fill:#808080;" width="105.547" height="10.792"/>
	<rect x="338.249" y="390.003" style="fill:#808080;" width="31.657" height="10.792"/>
	<rect x="142.096" y="390.003" style="fill:#808080;" width="29.51" height="10.792"/>
</g>
<g>
	<path style="fill:#E54728;" d="M186.879,416.668c-11.732,0-21.277-9.545-21.277-21.277s9.545-21.276,21.277-21.276
		c11.732,0,21.276,9.544,21.276,21.276S198.61,416.668,186.879,416.668z M186.879,386.106c-5.12,0-9.286,4.166-9.286,9.285
		c0,5.12,4.166,9.286,9.286,9.286s9.285-4.166,9.285-9.286C196.164,390.272,191.998,386.106,186.879,386.106z"/>
	<path style="fill:#E54728;" d="M322.98,416.668c-11.732,0-21.277-9.545-21.277-21.277s9.545-21.276,21.277-21.276
		s21.276,9.544,21.276,21.276S334.711,416.668,322.98,416.668z M322.98,386.106c-5.12,0-9.286,4.166-9.286,9.285
		c0,5.12,4.166,9.286,9.286,9.286c5.12,0,9.285-4.166,9.285-9.286C332.264,390.272,328.099,386.106,322.98,386.106z"/>
</g>
<g>
	<rect x="142.096" y="204.139" style="fill:#808080;" width="29.51" height="10.792"/>
	<rect x="270.211" y="204.139" style="fill:#808080;" width="37.497" height="10.792"/>
	<rect x="338.249" y="204.139" style="fill:#808080;" width="28.371" height="10.792"/>
	<rect x="202.16" y="204.139" style="fill:#808080;" width="37.497" height="10.792"/>
</g>
<g>
	<path style="fill:#E54728;" d="M186.879,230.815c-11.732,0-21.277-9.545-21.277-21.277s9.545-21.276,21.277-21.276
		c11.732,0,21.276,9.544,21.276,21.276S198.61,230.815,186.879,230.815z M186.879,200.253c-5.12,0-9.286,4.166-9.286,9.285
		c0,5.12,4.166,9.286,9.286,9.286s9.285-4.166,9.285-9.286C196.164,204.418,191.998,200.253,186.879,200.253z"/>
	<path style="fill:#E54728;" d="M254.929,230.815c-11.732,0-21.277-9.545-21.277-21.277s9.545-21.276,21.277-21.276
		c11.732,0,21.276,9.544,21.276,21.276S266.66,230.815,254.929,230.815z M254.929,200.253c-5.12,0-9.286,4.166-9.286,9.285
		c0,5.12,4.166,9.286,9.286,9.286c5.12,0,9.285-4.166,9.285-9.286C264.214,204.418,260.048,200.253,254.929,200.253z"/>
	<path style="fill:#E54728;" d="M322.98,230.814c-11.732,0-21.277-9.545-21.277-21.277s9.545-21.276,21.277-21.276
		s21.276,9.544,21.276,21.276S334.711,230.814,322.98,230.814z M322.98,200.251c-5.12,0-9.286,4.166-9.286,9.285
		c0,5.12,4.166,9.286,9.286,9.286c5.12,0,9.285-4.166,9.285-9.286C332.264,204.416,328.099,200.251,322.98,200.251z"/>
</g>
<g>
	<rect x="142.096" y="297.059" style="fill:#808080;" width="29.51" height="10.792"/>
	<rect x="270.211" y="297.059" style="fill:#808080;" width="37.497" height="10.792"/>
	<rect x="338.249" y="297.059" style="fill:#808080;" width="28.371" height="10.792"/>
	<rect x="202.16" y="297.059" style="fill:#808080;" width="37.497" height="10.792"/>
</g>
<g>
	<path style="fill:#2BA5F7;" d="M186.879,323.741c-11.732,0-21.277-9.544-21.277-21.276c0-11.732,9.545-21.277,21.277-21.277
		c11.732,0,21.276,9.545,21.276,21.277C208.155,314.197,198.61,323.741,186.879,323.741z M186.879,293.179
		c-5.12,0-9.286,4.166-9.286,9.286c0,5.12,4.166,9.285,9.286,9.285s9.285-4.166,9.285-9.285
		C196.164,297.345,191.998,293.179,186.879,293.179z"/>
	<path style="fill:#2BA5F7;" d="M254.929,323.741c-11.732,0-21.277-9.544-21.277-21.276c0-11.732,9.545-21.277,21.277-21.277
		c11.732,0,21.276,9.545,21.276,21.277C276.205,314.197,266.66,323.741,254.929,323.741z M254.929,293.179
		c-5.12,0-9.286,4.166-9.286,9.286c0,5.12,4.166,9.285,9.286,9.285c5.12,0,9.285-4.166,9.285-9.285
		C264.214,297.345,260.048,293.179,254.929,293.179z"/>
	<path style="fill:#2BA5F7;" d="M322.98,323.74c-11.732,0-21.277-9.544-21.277-21.276c0-11.732,9.545-21.277,21.277-21.277
		s21.276,9.545,21.276,21.277C344.256,314.195,334.711,323.74,322.98,323.74z M322.98,293.178c-5.12,0-9.286,4.166-9.286,9.286
		s4.166,9.285,9.286,9.285c5.12,0,9.285-4.166,9.285-9.285C332.264,297.342,328.099,293.178,322.98,293.178z"/>
</g>
<path style="fill:#2197D8;" d="M271.65,88.445h-31.301c-6.423,0-11.63-5.207-11.63-11.63v-17.46h54.56v17.46
	C283.28,83.238,278.074,88.445,271.65,88.445z"/>
<path style="fill:#F95428;" d="M240.35,423.555h31.301c6.423,0,11.63,5.207,11.63,11.63v17.46h-54.56v-17.46
	C228.72,428.762,233.927,423.555,240.35,423.555z"/>
<g>
	<path style="fill:#FFFFFF;" d="M271.65,93.841h-31.301c-9.388,0-17.026-7.638-17.026-17.026v-17.46c0-2.98,2.416-5.396,5.396-5.396
		h54.56c2.98,0,5.396,2.416,5.396,5.396v17.46C288.676,86.203,281.039,93.841,271.65,93.841z M234.116,64.75v12.064
		c0,3.438,2.796,6.234,6.234,6.234h31.301c3.438,0,6.234-2.796,6.234-6.234V64.75H234.116z"/>
	<path style="fill:#FFFFFF;" d="M283.28,458.042h-54.56c-2.98,0-5.396-2.416-5.396-5.396v-17.46c0-9.388,7.638-17.026,17.026-17.026
		h31.301c9.388,0,17.026,7.638,17.026,17.026v17.46C288.676,455.626,286.26,458.042,283.28,458.042z M234.116,447.25h43.768v-12.064
		c0-3.438-2.796-6.234-6.234-6.234h-31.301c-3.438,0-6.234,2.796-6.234,6.234v12.064H234.116z"/>
</g>
<path style="fill:#90BC42;" d="M369.91,458.042H142.09c-2.98,0-5.396-2.416-5.396-5.396V59.354c0-2.98,2.416-5.396,5.396-5.396
	H369.91c2.98,0,5.396,2.416,5.396,5.396v393.291C375.306,455.626,372.891,458.042,369.91,458.042z M147.486,447.25h217.027V64.75
	H147.486V447.25z"/>
</svg>
